<svg width="70" height="60" viewBox="0 0 70 60" fill="none" xmlns="http://www.w3.org/2000/svg">
<path d="M45.1107 27.6565C44.769 27.6565 44.4807 27.3917 44.4266 27.0543C41.6121 9.48965 14.603 10.8978 14.603 27.6565V58.912C14.603 59.2864 14.2995 59.5899 13.925 59.5899H0.677916C0.303513 59.5899 0 59.2864 0 58.912V27.6565C0 -8.31238 54.3007 -9.8538 58.6809 26.8966C58.7283 27.2946 58.4162 27.6565 58.0154 27.6565H45.1107Z" fill="black"/>
<path d="M30.5837 31.5766C30.9791 31.5766 31.2888 31.9246 31.2718 32.3197C30.5532 49.062 51.1584 52.9726 55.9418 42.6331C56.1378 42.2095 55.8127 41.7454 55.346 41.7454H45.1906C44.8162 41.7454 44.5126 41.4419 44.5126 41.0675V32.2545C44.5126 31.8801 44.8162 31.5766 45.1906 31.5766H69.2288C69.5794 31.5766 69.8743 31.8612 69.9002 32.2109C72.5989 68.623 19.6522 69.8769 19.0074 32.2721C19.001 31.8977 19.305 31.5766 19.6794 31.5766H30.5837Z" fill="black"/>
</svg>
